<mxfile host="app.diagrams.net" modified="2020-12-16T11:36:02.433Z" agent="5.0 (Windows NT 10.0; Win64; x64) AppleWebKit/537.36 (KHTML, like Gecko) Chrome/85.0.4183.121 Safari/537.36 OPR/71.0.3770.456" etag="2oFlE0w2rXzVGeRPtG6p" version="14.0.3" type="github">
  <diagram id="aIoEkn1YH7cAKrpfLnDC" name="Page-1">
    <mxGraphModel dx="952" dy="555" grid="1" gridSize="10" guides="1" tooltips="1" connect="1" arrows="1" fold="1" page="1" pageScale="1" pageWidth="4681" pageHeight="3300" math="0" shadow="0">
      <root>
        <mxCell id="0" />
        <mxCell id="1" parent="0" />
        <mxCell id="WCCu6j-aC2i8GrxxN_Te-6" style="edgeStyle=orthogonalEdgeStyle;rounded=0;orthogonalLoop=1;jettySize=auto;html=1;entryX=0;entryY=0.5;entryDx=0;entryDy=0;" edge="1" parent="1" source="WCCu6j-aC2i8GrxxN_Te-3" target="WCCu6j-aC2i8GrxxN_Te-4">
          <mxGeometry relative="1" as="geometry" />
        </mxCell>
        <mxCell id="WCCu6j-aC2i8GrxxN_Te-3" value="Start&lt;br&gt;{Welcome Message}" style="rounded=1;whiteSpace=wrap;html=1;fillColor=#f8cecc;strokeColor=none;" vertex="1" parent="1">
          <mxGeometry x="60" y="1930" width="120" height="180" as="geometry" />
        </mxCell>
        <mxCell id="WCCu6j-aC2i8GrxxN_Te-4" value="" style="rounded=1;whiteSpace=wrap;html=1;fillColor=#d5e8d4;strokeColor=none;" vertex="1" parent="1">
          <mxGeometry x="360" y="1965" width="120" height="110" as="geometry" />
        </mxCell>
        <mxCell id="WCCu6j-aC2i8GrxxN_Te-8" value="Start&lt;br&gt;{Welcome Message}" style="rounded=1;whiteSpace=wrap;html=1;fillColor=#f8cecc;strokeColor=none;" vertex="1" parent="1">
          <mxGeometry x="230.0000000000001" y="1920" width="120" height="180" as="geometry" />
        </mxCell>
      </root>
    </mxGraphModel>
  </diagram>
</mxfile>
